<mxfile host="Electron" modified="2023-12-14T19:38:27.434Z" agent="Mozilla/5.0 (X11; Linux x86_64) AppleWebKit/537.36 (KHTML, like Gecko) draw.io/22.1.2 Chrome/114.0.5735.289 Electron/25.9.4 Safari/537.36" etag="ISAdp6htuRqkdns2yw8d" version="22.1.2" type="device">
  <diagram id="suDNTsbO2CK4yOKxJaUv" name="Page-1">
    <mxGraphModel dx="1674" dy="1233" grid="1" gridSize="10" guides="1" tooltips="1" connect="1" arrows="1" fold="1" page="0" pageScale="1" pageWidth="1100" pageHeight="850" background="none" math="0" shadow="0">
      <root>
        <mxCell id="0" />
        <mxCell id="1" parent="0" />
        <mxCell id="orV90MqigAFxg5cfew12-29" value="" style="rounded=0;whiteSpace=wrap;html=1;strokeColor=#333333;fillColor=#E6E6E6;verticalAlign=top;fontFamily=Source Code Pro;fontSize=12;labelPosition=center;verticalLabelPosition=bottom;align=center;spacingLeft=4;sketch=0;fontColor=#000000;labelBackgroundColor=none;fontSource=https%3A%2F%2Ffonts.googleapis.com%2Fcss%3Ffamily%3DSource%2BCode%2BPro;" parent="1" vertex="1">
          <mxGeometry x="1130" y="290" width="170" height="80" as="geometry" />
        </mxCell>
        <mxCell id="Pc061_s3fGXJPYhwyrSY-44" value="" style="rounded=0;whiteSpace=wrap;html=1;strokeColor=#333333;fillColor=#E6E6E6;verticalAlign=top;fontFamily=Source Code Pro;fontSize=12;labelPosition=center;verticalLabelPosition=bottom;align=center;spacingLeft=4;sketch=0;fontColor=#000000;labelBackgroundColor=none;fontSource=https%3A%2F%2Ffonts.googleapis.com%2Fcss%3Ffamily%3DSource%2BCode%2BPro;" parent="1" vertex="1">
          <mxGeometry x="900" y="100" width="170" height="80" as="geometry" />
        </mxCell>
        <mxCell id="Pc061_s3fGXJPYhwyrSY-46" value="HTTP&lt;br&gt;Adapter" style="rounded=0;whiteSpace=wrap;html=1;strokeColor=#333333;fillColor=#e3c800;verticalAlign=middle;fontFamily=Source Code Pro;fontSize=12;fontColor=#000000;shadow=1;labelBackgroundColor=none;fontSource=https%3A%2F%2Ffonts.googleapis.com%2Fcss%3Ffamily%3DSource%2BCode%2BPro;spacingLeft=0;spacingTop=0;spacingBottom=0;spacing=2;" parent="1" vertex="1">
          <mxGeometry x="910" y="110" width="150" height="60" as="geometry" />
        </mxCell>
        <mxCell id="orV90MqigAFxg5cfew12-17" style="edgeStyle=orthogonalEdgeStyle;rounded=0;orthogonalLoop=1;jettySize=auto;html=1;exitX=0.825;exitY=0.5;exitDx=0;exitDy=0;exitPerimeter=0;entryX=0;entryY=0.5;entryDx=0;entryDy=0;fontFamily=Source Code Pro;fontSize=12;fontColor=#000000;endArrow=none;endFill=0;labelBackgroundColor=none;fontSource=https%3A%2F%2Ffonts.googleapis.com%2Fcss%3Ffamily%3DSource%2BCode%2BPro;" parent="1" source="Pc061_s3fGXJPYhwyrSY-49" target="Pc061_s3fGXJPYhwyrSY-44" edge="1">
          <mxGeometry relative="1" as="geometry" />
        </mxCell>
        <mxCell id="Pc061_s3fGXJPYhwyrSY-49" value="HTTP" style="sketch=0;fillColor=#4D4D4D;strokeColor=none;verticalAlign=bottom;labelPosition=center;verticalLabelPosition=top;align=center;spacingTop=0;fontSize=12;fontStyle=0;fontColor=#000000;shape=mxgraph.gcp2.hexIcon;prIcon=stackdriver;rounded=1;shadow=0;glass=0;fontFamily=Source Code Pro;spacingBottom=-10;labelBackgroundColor=none;fontSource=https%3A%2F%2Ffonts.googleapis.com%2Fcss%3Ffamily%3DSource%2BCode%2BPro;" parent="1" vertex="1">
          <mxGeometry x="725" y="97.5" width="100" height="85" as="geometry" />
        </mxCell>
        <mxCell id="orV90MqigAFxg5cfew12-1" value="Pub/Sub - Stores" style="sketch=0;fillColor=#4D4D4D;strokeColor=none;verticalAlign=bottom;labelPosition=center;verticalLabelPosition=top;align=center;spacingTop=0;fontSize=12;fontStyle=0;fontColor=#000000;shape=mxgraph.gcp2.hexIcon;prIcon=cloud_sql;fontFamily=Source Code Pro;spacingBottom=-10;labelBackgroundColor=none;fontSource=https%3A%2F%2Ffonts.googleapis.com%2Fcss%3Ffamily%3DSource%2BCode%2BPro;" parent="1" vertex="1">
          <mxGeometry x="725" y="457.5" width="100" height="85" as="geometry" />
        </mxCell>
        <mxCell id="FIGSMdclTSzzZVXMSy71-37" style="edgeStyle=orthogonalEdgeStyle;rounded=0;orthogonalLoop=1;jettySize=auto;html=1;exitX=0.825;exitY=0.5;exitDx=0;exitDy=0;exitPerimeter=0;entryX=0;entryY=0.5;entryDx=0;entryDy=0;fontFamily=Source Code Pro;fontSource=https%3A%2F%2Ffonts.googleapis.com%2Fcss%3Ffamily%3DSource%2BCode%2BPro;fontSize=12;fontColor=#ffffff;endArrow=none;endFill=0;" parent="1" source="orV90MqigAFxg5cfew12-2" target="FIGSMdclTSzzZVXMSy71-35" edge="1">
          <mxGeometry relative="1" as="geometry" />
        </mxCell>
        <mxCell id="orV90MqigAFxg5cfew12-2" value="SQL Database" style="sketch=0;html=1;fillColor=#4D4D4D;strokeColor=none;verticalAlign=bottom;labelPosition=center;verticalLabelPosition=top;align=center;spacingTop=0;fontSize=12;fontStyle=0;fontColor=#000000;shape=mxgraph.gcp2.hexIcon;prIcon=persistent_disk;fontFamily=Source Code Pro;spacingBottom=-10;labelBackgroundColor=none;fontSource=https%3A%2F%2Ffonts.googleapis.com%2Fcss%3Ffamily%3DSource%2BCode%2BPro;" parent="1" vertex="1">
          <mxGeometry x="725" y="217.5" width="100" height="85" as="geometry" />
        </mxCell>
        <mxCell id="orV90MqigAFxg5cfew12-7" value="" style="rounded=0;whiteSpace=wrap;html=1;strokeColor=#333333;fillColor=#E6E6E6;verticalAlign=top;fontFamily=Source Code Pro;fontSize=12;labelPosition=center;verticalLabelPosition=bottom;align=center;spacingLeft=4;sketch=0;fontColor=#000000;labelBackgroundColor=none;fontSource=https%3A%2F%2Ffonts.googleapis.com%2Fcss%3Ffamily%3DSource%2BCode%2BPro;dashed=1;dashPattern=8 8;" parent="1" vertex="1">
          <mxGeometry x="900" y="340" width="170" height="80" as="geometry" />
        </mxCell>
        <mxCell id="orV90MqigAFxg5cfew12-9" value="CRON" style="rounded=0;whiteSpace=wrap;html=1;strokeColor=#333333;fillColor=#647687;verticalAlign=middle;fontFamily=Source Code Pro;fontSize=12;fontColor=#ffffff;shadow=1;labelBackgroundColor=none;fontSource=https%3A%2F%2Ffonts.googleapis.com%2Fcss%3Ffamily%3DSource%2BCode%2BPro;fontStyle=2;textOpacity=50;" parent="1" vertex="1">
          <mxGeometry x="910" y="350" width="150" height="60" as="geometry" />
        </mxCell>
        <mxCell id="orV90MqigAFxg5cfew12-15" value="Schedule" style="sketch=0;html=1;fillColor=#4D4D4D;strokeColor=none;verticalAlign=bottom;labelPosition=center;verticalLabelPosition=top;align=center;spacingTop=0;fontSize=12;fontStyle=0;fontColor=#000000;shape=mxgraph.gcp2.hexIcon;prIcon=profiler;fontFamily=Source Code Pro;spacingBottom=-10;labelBackgroundColor=none;fontSource=https%3A%2F%2Ffonts.googleapis.com%2Fcss%3Ffamily%3DSource%2BCode%2BPro;" parent="1" vertex="1">
          <mxGeometry x="725" y="337.5" width="100" height="85" as="geometry" />
        </mxCell>
        <mxCell id="orV90MqigAFxg5cfew12-60" style="rounded=0;orthogonalLoop=1;jettySize=auto;html=1;exitX=0;exitY=0.5;exitDx=0;exitDy=0;fontFamily=Source Code Pro;fontSize=12;fontColor=#000000;endArrow=none;endFill=0;strokeColor=#333333;fillColor=#647687;labelBackgroundColor=none;fontSource=https%3A%2F%2Ffonts.googleapis.com%2Fcss%3Ffamily%3DSource%2BCode%2BPro;entryX=1;entryY=0.5;entryDx=0;entryDy=0;edgeStyle=elbowEdgeStyle;" parent="1" source="orV90MqigAFxg5cfew12-54" target="orV90MqigAFxg5cfew12-29" edge="1">
          <mxGeometry relative="1" as="geometry">
            <mxPoint x="1370" y="330" as="targetPoint" />
          </mxGeometry>
        </mxCell>
        <mxCell id="orV90MqigAFxg5cfew12-54" value="" style="rounded=0;whiteSpace=wrap;html=1;strokeColor=#333333;fillColor=#E6E6E6;verticalAlign=bottom;fontFamily=Source Code Pro;fontSize=12;labelPosition=center;verticalLabelPosition=top;align=center;spacingLeft=0;spacingBottom=0;spacingTop=0;sketch=0;fontColor=#000000;labelBackgroundColor=none;fontSource=https%3A%2F%2Ffonts.googleapis.com%2Fcss%3Ffamily%3DSource%2BCode%2BPro;" parent="1" vertex="1">
          <mxGeometry x="1360" y="340" width="170" height="80" as="geometry" />
        </mxCell>
        <mxCell id="orV90MqigAFxg5cfew12-72" value="" style="shape=curlyBracket;whiteSpace=wrap;html=1;rounded=1;shadow=0;dashed=1;labelBackgroundColor=none;sketch=0;fontSize=12;strokeColor=#4D4D4D;strokeWidth=1;fillColor=default;rotation=-90;fontFamily=Source Code Pro;fontColor=#000000;fontSource=https%3A%2F%2Ffonts.googleapis.com%2Fcss%3Ffamily%3DSource%2BCode%2BPro;" parent="1" vertex="1">
          <mxGeometry x="1435" y="485" width="20" height="170" as="geometry" />
        </mxCell>
        <mxCell id="orV90MqigAFxg5cfew12-73" value="Components" style="text;html=1;align=center;verticalAlign=middle;resizable=0;points=[];autosize=1;strokeColor=none;fillColor=none;fontSize=12;fontFamily=Source Code Pro;fontColor=#000000;labelBackgroundColor=none;fontSource=https%3A%2F%2Ffonts.googleapis.com%2Fcss%3Ffamily%3DSource%2BCode%2BPro;" parent="1" vertex="1">
          <mxGeometry x="1395" y="35" width="100" height="30" as="geometry" />
        </mxCell>
        <mxCell id="orV90MqigAFxg5cfew12-74" value="" style="shape=curlyBracket;whiteSpace=wrap;html=1;rounded=1;shadow=0;dashed=1;labelBackgroundColor=none;sketch=0;fontSize=12;strokeColor=#4D4D4D;strokeWidth=1;fillColor=default;rotation=-90;fontFamily=Source Code Pro;fontColor=#000000;fontSource=https%3A%2F%2Ffonts.googleapis.com%2Fcss%3Ffamily%3DSource%2BCode%2BPro;" parent="1" vertex="1">
          <mxGeometry x="975" y="485" width="20" height="170" as="geometry" />
        </mxCell>
        <mxCell id="orV90MqigAFxg5cfew12-75" value="Adapaters" style="text;html=1;align=center;verticalAlign=middle;resizable=0;points=[];autosize=1;strokeColor=none;fillColor=none;fontSize=12;fontFamily=Source Code Pro;fontColor=#000000;labelBackgroundColor=none;fontSource=https%3A%2F%2Ffonts.googleapis.com%2Fcss%3Ffamily%3DSource%2BCode%2BPro;" parent="1" vertex="1">
          <mxGeometry x="940" y="35" width="90" height="30" as="geometry" />
        </mxCell>
        <mxCell id="orV90MqigAFxg5cfew12-82" style="rounded=0;orthogonalLoop=1;jettySize=auto;html=1;exitX=0;exitY=0.5;exitDx=0;exitDy=0;entryX=1;entryY=0.5;entryDx=0;entryDy=0;fontFamily=Source Code Pro;fontSize=12;fontColor=#000000;endArrow=none;endFill=0;strokeColor=#333333;fillColor=#647687;labelBackgroundColor=none;fontSource=https%3A%2F%2Ffonts.googleapis.com%2Fcss%3Ffamily%3DSource%2BCode%2BPro;edgeStyle=elbowEdgeStyle;" parent="1" source="FIGSMdclTSzzZVXMSy71-27" target="orV90MqigAFxg5cfew12-29" edge="1">
          <mxGeometry relative="1" as="geometry">
            <mxPoint x="1380" y="239.25" as="sourcePoint" />
          </mxGeometry>
        </mxCell>
        <mxCell id="orV90MqigAFxg5cfew12-83" value="" style="shape=curlyBracket;whiteSpace=wrap;html=1;rounded=1;shadow=0;dashed=1;labelBackgroundColor=none;sketch=0;fontSize=12;strokeColor=#4D4D4D;strokeWidth=1;fillColor=default;rotation=90;fontFamily=Source Code Pro;fontColor=#000000;fontSource=https%3A%2F%2Ffonts.googleapis.com%2Fcss%3Ffamily%3DSource%2BCode%2BPro;" parent="1" vertex="1">
          <mxGeometry x="1435" y="-15" width="20" height="170" as="geometry" />
        </mxCell>
        <mxCell id="orV90MqigAFxg5cfew12-85" value="" style="shape=curlyBracket;whiteSpace=wrap;html=1;rounded=1;shadow=0;dashed=1;labelBackgroundColor=none;sketch=0;fontSize=12;strokeColor=#4D4D4D;strokeWidth=1;fillColor=default;rotation=-90;fontFamily=Source Code Pro;fontColor=#000000;fontSource=https%3A%2F%2Ffonts.googleapis.com%2Fcss%3Ffamily%3DSource%2BCode%2BPro;" parent="1" vertex="1">
          <mxGeometry x="765" y="485" width="20" height="170" as="geometry" />
        </mxCell>
        <mxCell id="orV90MqigAFxg5cfew12-86" value="External Components" style="text;align=center;verticalAlign=middle;resizable=0;points=[];autosize=1;strokeColor=none;fillColor=none;fontSize=12;fontFamily=Source Code Pro;fontColor=default;labelBackgroundColor=none;fontSource=https%3A%2F%2Ffonts.googleapis.com%2Fcss%3Ffamily%3DSource%2BCode%2BPro;html=1;" parent="1" vertex="1">
          <mxGeometry x="695" y="35" width="160" height="30" as="geometry" />
        </mxCell>
        <mxCell id="orV90MqigAFxg5cfew12-91" value="" style="shape=curlyBracket;whiteSpace=wrap;html=1;rounded=1;shadow=0;dashed=1;labelBackgroundColor=none;sketch=0;fontSize=12;strokeColor=#4D4D4D;strokeWidth=1;fillColor=default;rotation=90;fontFamily=Source Code Pro;fontColor=#000000;fontSource=https%3A%2F%2Ffonts.googleapis.com%2Fcss%3Ffamily%3DSource%2BCode%2BPro;" parent="1" vertex="1">
          <mxGeometry x="975" y="-15" width="20" height="170" as="geometry" />
        </mxCell>
        <mxCell id="orV90MqigAFxg5cfew12-92" value="" style="shape=curlyBracket;whiteSpace=wrap;html=1;rounded=1;shadow=0;dashed=1;labelBackgroundColor=none;sketch=0;fontSize=12;strokeColor=#4D4D4D;strokeWidth=1;fillColor=default;rotation=90;fontFamily=Source Code Pro;fontColor=#000000;fontSource=https%3A%2F%2Ffonts.googleapis.com%2Fcss%3Ffamily%3DSource%2BCode%2BPro;" parent="1" vertex="1">
          <mxGeometry x="765" y="-15" width="20" height="170" as="geometry" />
        </mxCell>
        <mxCell id="FIGSMdclTSzzZVXMSy71-13" style="rounded=0;orthogonalLoop=1;jettySize=auto;html=1;entryX=1;entryY=0.5;entryDx=0;entryDy=0;fontFamily=Source Code Pro;fontSize=12;fontColor=#000000;endArrow=none;endFill=0;strokeColor=#333333;fillColor=#647687;labelBackgroundColor=none;fontSource=https%3A%2F%2Ffonts.googleapis.com%2Fcss%3Ffamily%3DSource%2BCode%2BPro;exitX=0;exitY=0.5;exitDx=0;exitDy=0;edgeStyle=elbowEdgeStyle;" parent="1" source="FIGSMdclTSzzZVXMSy71-21" target="orV90MqigAFxg5cfew12-29" edge="1">
          <mxGeometry relative="1" as="geometry">
            <mxPoint x="1330" y="420" as="sourcePoint" />
            <mxPoint x="1310" y="320" as="targetPoint" />
          </mxGeometry>
        </mxCell>
        <mxCell id="FIGSMdclTSzzZVXMSy71-14" value="Handlers" style="rounded=0;whiteSpace=wrap;html=1;strokeColor=#333333;fillColor=#517544;verticalAlign=middle;fontFamily=Source Code Pro;fontSize=12;shadow=1;labelBackgroundColor=none;fontSource=https%3A%2F%2Ffonts.googleapis.com%2Fcss%3Ffamily%3DSource%2BCode%2BPro;fontColor=#ffffff;" parent="1" vertex="1">
          <mxGeometry x="1370" y="350" width="150" height="30" as="geometry" />
        </mxCell>
        <mxCell id="FIGSMdclTSzzZVXMSy71-15" value="Kit SDK" style="rounded=0;whiteSpace=wrap;html=1;strokeColor=#333333;fillColor=#e3c800;verticalAlign=middle;fontFamily=Source Code Pro;fontSize=12;horizontal=1;spacingLeft=0;spacingTop=0;spacingBottom=0;spacing=2;shadow=1;labelBackgroundColor=none;fontSource=https%3A%2F%2Ffonts.googleapis.com%2Fcss%3Ffamily%3DSource%2BCode%2BPro;fontColor=#000000;" parent="1" vertex="1">
          <mxGeometry x="1370.0039533906865" y="380" width="150" height="30" as="geometry" />
        </mxCell>
        <mxCell id="FIGSMdclTSzzZVXMSy71-21" value="" style="rounded=0;whiteSpace=wrap;html=1;strokeColor=#333333;fillColor=#E6E6E6;verticalAlign=bottom;fontFamily=Source Code Pro;fontSize=12;labelPosition=center;verticalLabelPosition=top;align=center;spacingLeft=0;spacingBottom=0;spacingTop=0;sketch=0;fontColor=#000000;labelBackgroundColor=none;fontSource=https%3A%2F%2Ffonts.googleapis.com%2Fcss%3Ffamily%3DSource%2BCode%2BPro;" parent="1" vertex="1">
          <mxGeometry x="1360" y="460" width="170" height="80" as="geometry" />
        </mxCell>
        <mxCell id="FIGSMdclTSzzZVXMSy71-22" value="Handlers" style="rounded=0;whiteSpace=wrap;html=1;strokeColor=#333333;fillColor=#517544;verticalAlign=middle;fontFamily=Source Code Pro;fontSize=12;shadow=1;labelBackgroundColor=none;fontSource=https%3A%2F%2Ffonts.googleapis.com%2Fcss%3Ffamily%3DSource%2BCode%2BPro;fontColor=#ffffff;" parent="1" vertex="1">
          <mxGeometry x="1370" y="470" width="150" height="30" as="geometry" />
        </mxCell>
        <mxCell id="FIGSMdclTSzzZVXMSy71-23" value="Kit SDK" style="rounded=0;whiteSpace=wrap;html=1;strokeColor=#333333;fillColor=#e3c800;verticalAlign=middle;fontFamily=Source Code Pro;fontSize=12;horizontal=1;spacingLeft=0;spacingTop=0;spacingBottom=0;spacing=2;shadow=1;labelBackgroundColor=none;fontSource=https%3A%2F%2Ffonts.googleapis.com%2Fcss%3Ffamily%3DSource%2BCode%2BPro;fontColor=#000000;" parent="1" vertex="1">
          <mxGeometry x="1370.0039533906865" y="500" width="150" height="30" as="geometry" />
        </mxCell>
        <mxCell id="FIGSMdclTSzzZVXMSy71-27" value="" style="rounded=0;whiteSpace=wrap;html=1;strokeColor=#333333;fillColor=#E6E6E6;verticalAlign=bottom;fontFamily=Source Code Pro;fontSize=12;labelPosition=center;verticalLabelPosition=top;align=center;spacingLeft=0;spacingBottom=0;spacingTop=0;sketch=0;fontColor=#000000;labelBackgroundColor=none;fontSource=https%3A%2F%2Ffonts.googleapis.com%2Fcss%3Ffamily%3DSource%2BCode%2BPro;" parent="1" vertex="1">
          <mxGeometry x="1360" y="220" width="170" height="80" as="geometry" />
        </mxCell>
        <mxCell id="FIGSMdclTSzzZVXMSy71-28" value="Handlers" style="rounded=0;whiteSpace=wrap;html=1;strokeColor=#333333;fillColor=#517544;verticalAlign=middle;fontFamily=Source Code Pro;fontSize=12;shadow=1;labelBackgroundColor=none;fontSource=https%3A%2F%2Ffonts.googleapis.com%2Fcss%3Ffamily%3DSource%2BCode%2BPro;fontColor=#ffffff;" parent="1" vertex="1">
          <mxGeometry x="1370" y="230" width="150" height="30" as="geometry" />
        </mxCell>
        <mxCell id="FIGSMdclTSzzZVXMSy71-29" value="Kit SDK" style="rounded=0;whiteSpace=wrap;html=1;strokeColor=#333333;fillColor=#e3c800;verticalAlign=middle;fontFamily=Source Code Pro;fontSize=12;horizontal=1;spacingLeft=0;spacingTop=0;spacingBottom=0;spacing=2;shadow=1;labelBackgroundColor=none;fontSource=https%3A%2F%2Ffonts.googleapis.com%2Fcss%3Ffamily%3DSource%2BCode%2BPro;fontColor=#000000;" parent="1" vertex="1">
          <mxGeometry x="1370.0039533906865" y="260" width="150" height="30" as="geometry" />
        </mxCell>
        <mxCell id="FIGSMdclTSzzZVXMSy71-32" value="" style="rounded=0;whiteSpace=wrap;html=1;strokeColor=#333333;fillColor=#E6E6E6;verticalAlign=top;fontFamily=Source Code Pro;fontSize=12;labelPosition=center;verticalLabelPosition=bottom;align=center;spacingLeft=4;sketch=0;fontColor=#000000;labelBackgroundColor=none;fontSource=https%3A%2F%2Ffonts.googleapis.com%2Fcss%3Ffamily%3DSource%2BCode%2BPro;dashed=1;dashPattern=8 8;" parent="1" vertex="1">
          <mxGeometry x="900" y="460" width="170" height="80" as="geometry" />
        </mxCell>
        <mxCell id="FIGSMdclTSzzZVXMSy71-33" value="Dapr" style="rounded=0;whiteSpace=wrap;html=1;strokeColor=#333333;fillColor=#647687;verticalAlign=middle;fontFamily=Source Code Pro;fontSize=12;fontColor=#ffffff;shadow=1;labelBackgroundColor=none;fontSource=https%3A%2F%2Ffonts.googleapis.com%2Fcss%3Ffamily%3DSource%2BCode%2BPro;fontStyle=2;textOpacity=50;" parent="1" vertex="1">
          <mxGeometry x="910" y="470" width="150" height="60" as="geometry" />
        </mxCell>
        <mxCell id="FIGSMdclTSzzZVXMSy71-35" value="" style="rounded=0;whiteSpace=wrap;html=1;strokeColor=#333333;fillColor=#E6E6E6;verticalAlign=top;fontFamily=Source Code Pro;fontSize=12;labelPosition=center;verticalLabelPosition=bottom;align=center;spacingLeft=4;sketch=0;dashed=1;fontColor=#000000;labelBackgroundColor=none;fontSource=https%3A%2F%2Ffonts.googleapis.com%2Fcss%3Ffamily%3DSource%2BCode%2BPro;dashPattern=8 8;" parent="1" vertex="1">
          <mxGeometry x="900" y="220" width="170" height="80" as="geometry" />
        </mxCell>
        <mxCell id="FIGSMdclTSzzZVXMSy71-36" value="Database&lt;br&gt;Adapter" style="rounded=0;whiteSpace=wrap;html=1;strokeColor=#333333;fillColor=#e3c800;verticalAlign=middle;fontFamily=Source Code Pro;fontSize=12;fontColor=#000000;spacingLeft=0;spacingTop=0;spacingBottom=0;spacing=2;shadow=1;labelBackgroundColor=none;fontSource=https%3A%2F%2Ffonts.googleapis.com%2Fcss%3Ffamily%3DSource%2BCode%2BPro;fontStyle=2;textOpacity=50;" parent="1" vertex="1">
          <mxGeometry x="910" y="230" width="150" height="60" as="geometry" />
        </mxCell>
        <mxCell id="FIGSMdclTSzzZVXMSy71-39" style="edgeStyle=orthogonalEdgeStyle;rounded=0;orthogonalLoop=1;jettySize=auto;html=1;exitX=0.825;exitY=0.5;exitDx=0;exitDy=0;exitPerimeter=0;entryX=0;entryY=0.5;entryDx=0;entryDy=0;fontFamily=Source Code Pro;fontSource=https%3A%2F%2Ffonts.googleapis.com%2Fcss%3Ffamily%3DSource%2BCode%2BPro;fontSize=12;fontColor=#ffffff;endArrow=none;endFill=0;" parent="1" source="orV90MqigAFxg5cfew12-15" target="orV90MqigAFxg5cfew12-7" edge="1">
          <mxGeometry relative="1" as="geometry">
            <mxPoint x="738" y="250" as="sourcePoint" />
            <mxPoint x="870" y="250" as="targetPoint" />
          </mxGeometry>
        </mxCell>
        <mxCell id="FIGSMdclTSzzZVXMSy71-40" style="edgeStyle=orthogonalEdgeStyle;rounded=0;orthogonalLoop=1;jettySize=auto;html=1;exitX=0.825;exitY=0.5;exitDx=0;exitDy=0;exitPerimeter=0;entryX=0;entryY=0.5;entryDx=0;entryDy=0;fontFamily=Source Code Pro;fontSource=https%3A%2F%2Ffonts.googleapis.com%2Fcss%3Ffamily%3DSource%2BCode%2BPro;fontSize=12;fontColor=#ffffff;endArrow=none;endFill=0;" parent="1" source="orV90MqigAFxg5cfew12-1" target="FIGSMdclTSzzZVXMSy71-32" edge="1">
          <mxGeometry relative="1" as="geometry">
            <mxPoint x="748" y="240" as="sourcePoint" />
            <mxPoint x="880" y="240" as="targetPoint" />
          </mxGeometry>
        </mxCell>
        <mxCell id="FIGSMdclTSzzZVXMSy71-41" value="" style="rounded=0;whiteSpace=wrap;html=1;strokeColor=#333333;fillColor=#E6E6E6;verticalAlign=bottom;fontFamily=Source Code Pro;fontSize=12;labelPosition=center;verticalLabelPosition=top;align=center;spacingLeft=0;spacingBottom=0;spacingTop=0;sketch=0;fontColor=#000000;labelBackgroundColor=none;fontSource=https%3A%2F%2Ffonts.googleapis.com%2Fcss%3Ffamily%3DSource%2BCode%2BPro;" parent="1" vertex="1">
          <mxGeometry x="1360" y="100" width="170" height="80" as="geometry" />
        </mxCell>
        <mxCell id="FIGSMdclTSzzZVXMSy71-42" value="Handlers" style="rounded=0;whiteSpace=wrap;html=1;strokeColor=#333333;fillColor=#517544;verticalAlign=middle;fontFamily=Source Code Pro;fontSize=12;shadow=1;labelBackgroundColor=none;fontSource=https%3A%2F%2Ffonts.googleapis.com%2Fcss%3Ffamily%3DSource%2BCode%2BPro;fontColor=#ffffff;" parent="1" vertex="1">
          <mxGeometry x="1370" y="110" width="150" height="30" as="geometry" />
        </mxCell>
        <mxCell id="FIGSMdclTSzzZVXMSy71-43" value="Kit SDK" style="rounded=0;whiteSpace=wrap;html=1;strokeColor=#333333;fillColor=#e3c800;verticalAlign=middle;fontFamily=Source Code Pro;fontSize=12;horizontal=1;spacingLeft=0;spacingTop=0;spacingBottom=0;spacing=2;shadow=1;labelBackgroundColor=none;fontSource=https%3A%2F%2Ffonts.googleapis.com%2Fcss%3Ffamily%3DSource%2BCode%2BPro;fontColor=#000000;" parent="1" vertex="1">
          <mxGeometry x="1370.0039533906865" y="140" width="150" height="30" as="geometry" />
        </mxCell>
        <mxCell id="FIGSMdclTSzzZVXMSy71-44" style="rounded=0;orthogonalLoop=1;jettySize=auto;html=1;exitX=0;exitY=0.5;exitDx=0;exitDy=0;entryX=1;entryY=0.5;entryDx=0;entryDy=0;fontFamily=Source Code Pro;fontSize=12;fontColor=#000000;endArrow=none;endFill=0;strokeColor=#333333;fillColor=#647687;labelBackgroundColor=none;fontSource=https%3A%2F%2Ffonts.googleapis.com%2Fcss%3Ffamily%3DSource%2BCode%2BPro;edgeStyle=elbowEdgeStyle;" parent="1" source="FIGSMdclTSzzZVXMSy71-41" target="orV90MqigAFxg5cfew12-29" edge="1">
          <mxGeometry relative="1" as="geometry">
            <mxPoint x="1390" y="270" as="sourcePoint" />
            <mxPoint x="1310" y="320" as="targetPoint" />
          </mxGeometry>
        </mxCell>
        <mxCell id="FIGSMdclTSzzZVXMSy71-45" style="rounded=0;orthogonalLoop=1;jettySize=auto;html=1;exitX=1;exitY=0.5;exitDx=0;exitDy=0;entryX=0;entryY=0.5;entryDx=0;entryDy=0;fontFamily=Source Code Pro;fontSize=12;fontColor=#000000;endArrow=none;endFill=0;strokeColor=#333333;fillColor=#647687;labelBackgroundColor=none;fontSource=https%3A%2F%2Ffonts.googleapis.com%2Fcss%3Ffamily%3DSource%2BCode%2BPro;edgeStyle=elbowEdgeStyle;" parent="1" source="Pc061_s3fGXJPYhwyrSY-44" target="orV90MqigAFxg5cfew12-29" edge="1">
          <mxGeometry relative="1" as="geometry">
            <mxPoint x="1390" y="170" as="sourcePoint" />
            <mxPoint x="1310" y="290" as="targetPoint" />
          </mxGeometry>
        </mxCell>
        <mxCell id="FIGSMdclTSzzZVXMSy71-46" style="rounded=0;orthogonalLoop=1;jettySize=auto;html=1;exitX=0;exitY=0.5;exitDx=0;exitDy=0;entryX=1;entryY=0.5;entryDx=0;entryDy=0;fontFamily=Source Code Pro;fontSize=12;fontColor=#000000;endArrow=none;endFill=0;strokeColor=#333333;fillColor=#647687;labelBackgroundColor=none;fontSource=https%3A%2F%2Ffonts.googleapis.com%2Fcss%3Ffamily%3DSource%2BCode%2BPro;edgeStyle=elbowEdgeStyle;" parent="1" source="orV90MqigAFxg5cfew12-29" target="FIGSMdclTSzzZVXMSy71-32" edge="1">
          <mxGeometry relative="1" as="geometry">
            <mxPoint x="1400" y="180" as="sourcePoint" />
            <mxPoint x="1320" y="300" as="targetPoint" />
          </mxGeometry>
        </mxCell>
        <mxCell id="FIGSMdclTSzzZVXMSy71-47" style="rounded=0;orthogonalLoop=1;jettySize=auto;html=1;entryX=0;entryY=0.5;entryDx=0;entryDy=0;fontFamily=Source Code Pro;fontSize=12;fontColor=#000000;endArrow=none;endFill=0;strokeColor=#333333;fillColor=#647687;labelBackgroundColor=none;fontSource=https%3A%2F%2Ffonts.googleapis.com%2Fcss%3Ffamily%3DSource%2BCode%2BPro;exitX=1;exitY=0.5;exitDx=0;exitDy=0;edgeStyle=elbowEdgeStyle;" parent="1" source="orV90MqigAFxg5cfew12-7" target="orV90MqigAFxg5cfew12-29" edge="1">
          <mxGeometry relative="1" as="geometry">
            <mxPoint x="1410" y="190" as="sourcePoint" />
            <mxPoint x="1330" y="310" as="targetPoint" />
          </mxGeometry>
        </mxCell>
        <mxCell id="FIGSMdclTSzzZVXMSy71-48" style="rounded=0;orthogonalLoop=1;jettySize=auto;html=1;exitX=1;exitY=0.5;exitDx=0;exitDy=0;entryX=0;entryY=0.5;entryDx=0;entryDy=0;fontFamily=Source Code Pro;fontSize=12;fontColor=#000000;endArrow=none;endFill=0;strokeColor=#333333;fillColor=#647687;labelBackgroundColor=none;fontSource=https%3A%2F%2Ffonts.googleapis.com%2Fcss%3Ffamily%3DSource%2BCode%2BPro;edgeStyle=elbowEdgeStyle;" parent="1" source="FIGSMdclTSzzZVXMSy71-35" target="orV90MqigAFxg5cfew12-29" edge="1">
          <mxGeometry relative="1" as="geometry">
            <mxPoint x="1420" y="200" as="sourcePoint" />
            <mxPoint x="1340" y="320" as="targetPoint" />
          </mxGeometry>
        </mxCell>
        <mxCell id="FIGSMdclTSzzZVXMSy71-52" value="Broker" style="rounded=0;whiteSpace=wrap;html=1;strokeColor=#333333;fillColor=#e3c800;verticalAlign=middle;fontFamily=Source Code Pro;fontSize=12;fontColor=#000000;shadow=1;labelBackgroundColor=none;fontSource=https%3A%2F%2Ffonts.googleapis.com%2Fcss%3Ffamily%3DSource%2BCode%2BPro;spacingLeft=0;spacingTop=0;spacingBottom=0;spacing=2;" parent="1" vertex="1">
          <mxGeometry x="1140" y="300" width="150" height="60" as="geometry" />
        </mxCell>
      </root>
    </mxGraphModel>
  </diagram>
</mxfile>
